<?xml version="1.0" encoding="utf-8"?>
<!-- Generator: Adobe Illustrator 14.0.0, SVG Export Plug-In . SVG Version: 6.00 Build 43363)  -->
<!DOCTYPE svg PUBLIC "-//W3C//DTD SVG 1.1//EN" "http://www.w3.org/Graphics/SVG/1.1/DTD/svg11.dtd">
<svg version="1.1" id="Layer_1" xmlns="http://www.w3.org/2000/svg" xmlns:xlink="http://www.w3.org/1999/xlink" x="0px" y="0px"
	 width="100px" height="100px" viewBox="0 0 100 100" enable-background="new 0 0 100 100" xml:space="preserve">
<path fill="#AEBF3F" d="M50.01,30l-0.004,8.75C56.216,38.753,61.25,43.789,61.25,50c0,6.213-5.037,11.25-11.25,11.25
	c-4.164,0-7.79-2.268-9.735-5.629l-7.572,4.371C36.151,65.969,42.598,70,50,70c11.045,0,20-8.954,20-20
	C70,38.958,61.051,30.006,50.01,30z"/>
<path fill="#BF3F6E" d="M71.25,50c0,7.864-4.283,14.714-10.634,18.389l4.382,7.588C73.964,70.79,80,61.104,80,50
	c0-16.568-13.432-30-30-30v8.75C61.734,28.75,71.25,38.265,71.25,50z"/>
<path fill="#3FBF5F" d="M50,10v8.75c17.259,0,31.25,13.991,31.25,31.25S67.259,81.25,50,81.25S18.75,67.259,18.75,50
	c0-5.693,1.53-11.026,4.19-15.624l-7.577-4.375C11.958,35.887,10,42.712,10,50c0,22.092,17.909,40,40,40s40-17.908,40-40
	C90,27.909,72.091,10,50,10z"/>
</svg>
